<svg width="27" height="25" viewBox="0 0 27 25" fill="none" xmlns="http://www.w3.org/2000/svg">
<path d="M13.5 2.39681V23.4883M13.5 2.39681L14.8752 1.88076C18.0045 0.706415 21.4955 0.706414 24.6248 1.88076C25.4554 2.19244 26 2.94711 26 3.78634V21.0997C26 22.252 24.7594 23.04 23.6189 22.612C21.1353 21.68 18.3647 21.68 15.8811 22.612L13.5171 23.4991C13.5089 23.5022 13.5 23.4966 13.5 23.4883M13.5 2.39681L12.1248 1.88076C8.99548 0.706415 5.50453 0.706414 2.37517 1.88076C1.54462 2.19244 1 2.94711 1 3.78634V21.0997C1 22.252 2.24059 23.04 3.38106 22.612C5.86469 21.68 8.63531 21.68 11.1189 22.612L13.4829 23.4991C13.4911 23.5022 13.5 23.4966 13.5 23.4883" stroke="white" stroke-width="1.5"/>
</svg>
