<svg width="27" height="27" viewBox="0 0 27 27" fill="none" xmlns="http://www.w3.org/2000/svg">
<path d="M1.19448 24.0246L1.90163 24.2745H1.90163L1.19448 24.0246ZM2.72573 25.5559L2.9756 26.263H2.9756L2.72573 25.5559ZM6.55674 24.2022L6.80661 24.9093L6.55674 24.2022ZM7.42091 24.2868L7.79075 23.6343L7.42091 24.2868ZM2.5244 19.2333L1.86054 19.5823L2.5244 19.2333ZM2.59249 20.0683L1.88534 19.8184L2.59249 20.0683ZM1.85187 13.4491C1.85187 6.98785 7.08972 1.75 13.5509 1.75V0.25C6.26129 0.25 0.351868 6.15942 0.351868 13.4491H1.85187ZM3.18827 18.8844C2.33501 17.2612 1.85187 15.4126 1.85187 13.4491H0.351868C0.351868 15.6616 0.89685 17.749 1.86054 19.5823L3.18827 18.8844ZM1.90163 24.2745L3.29964 20.3182L1.88534 19.8184L0.487334 23.7748L1.90163 24.2745ZM2.47585 24.8487C2.11918 24.9748 1.7756 24.6312 1.90163 24.2745L0.487334 23.7748C-0.0588123 25.3203 1.43001 26.8092 2.9756 26.263L2.47585 24.8487ZM6.30686 23.495L2.47585 24.8487L2.9756 26.263L6.80661 24.9093L6.30686 23.495ZM13.5509 25.1481C11.4553 25.1481 9.49051 24.5978 7.79075 23.6343L7.05107 24.9393C8.97046 26.0272 11.1893 26.6481 13.5509 26.6481V25.1481ZM25.25 13.4491C25.25 19.9103 20.0121 25.1481 13.5509 25.1481V26.6481C20.8406 26.6481 26.75 20.7387 26.75 13.4491H25.25ZM13.5509 1.75C20.0121 1.75 25.25 6.98785 25.25 13.4491H26.75C26.75 6.15942 20.8406 0.25 13.5509 0.25V1.75ZM6.80661 24.9093C6.8732 24.8858 6.9627 24.8892 7.05107 24.9393L7.79075 23.6343C7.3519 23.3856 6.81168 23.3166 6.30686 23.495L6.80661 24.9093ZM1.86054 19.5823C1.9059 19.6686 1.90798 19.7543 1.88534 19.8184L3.29964 20.3182C3.47115 19.8328 3.41405 19.3139 3.18827 18.8844L1.86054 19.5823Z" fill="white"/>
<circle cx="7.38865" cy="13.5111" r="1.55613" fill="white"/>
<circle cx="13.6132" cy="13.5111" r="1.55613" fill="white"/>
<circle cx="19.8377" cy="13.5111" r="1.55613" fill="white"/>
</svg>
